<mxfile host="app.diagrams.net" agent="Mozilla/5.0 (Windows NT 10.0; Win64; x64) AppleWebKit/537.36 (KHTML, like Gecko) Chrome/126.0.0.0 Safari/537.36 OPR/112.0.0.0" version="24.7.10">
  <diagram name="Page-1" id="JNUpkEpiuHTfUst7GYjN">
    <mxGraphModel dx="1196" dy="-2684" grid="1" gridSize="10" guides="1" tooltips="1" connect="1" arrows="1" fold="1" page="1" pageScale="1" pageWidth="850" pageHeight="1100" math="0" shadow="0">
      <root>
        <mxCell id="0" />
        <mxCell id="1" parent="0" />
        <mxCell id="OuKS78Ats9uxQYEp-e0J-1" value="Start" style="rounded=1;absoluteArcSize=1;arcSize=14;whiteSpace=wrap;strokeWidth=2;" vertex="1" parent="1">
          <mxGeometry x="336" y="3370" width="49" height="37" as="geometry" />
        </mxCell>
        <mxCell id="OuKS78Ats9uxQYEp-e0J-2" value="Is it true love?" style="rhombus;strokeWidth=2;whiteSpace=wrap;" vertex="1" parent="1">
          <mxGeometry x="283" y="3457" width="154" height="154" as="geometry" />
        </mxCell>
        <mxCell id="OuKS78Ats9uxQYEp-e0J-3" value="Process feelings" style="rounded=1;absoluteArcSize=1;arcSize=14;whiteSpace=wrap;strokeWidth=2;" vertex="1" parent="1">
          <mxGeometry x="183" y="3683" width="127" height="37" as="geometry" />
        </mxCell>
        <mxCell id="OuKS78Ats9uxQYEp-e0J-4" value="Are you sure?" style="rhombus;strokeWidth=2;whiteSpace=wrap;" vertex="1" parent="1">
          <mxGeometry x="173" y="3770" width="146" height="146" as="geometry" />
        </mxCell>
        <mxCell id="OuKS78Ats9uxQYEp-e0J-5" value="Enjoy happiness" style="rounded=1;absoluteArcSize=1;arcSize=14;whiteSpace=wrap;strokeWidth=2;" vertex="1" parent="1">
          <mxGeometry x="20" y="3988" width="129" height="37" as="geometry" />
        </mxCell>
        <mxCell id="OuKS78Ats9uxQYEp-e0J-6" value="Reflect on feelings" style="rounded=1;absoluteArcSize=1;arcSize=14;whiteSpace=wrap;strokeWidth=2;" vertex="1" parent="1">
          <mxGeometry x="199" y="3988" width="147" height="37" as="geometry" />
        </mxCell>
        <mxCell id="OuKS78Ats9uxQYEp-e0J-7" value="Need more time?" style="rhombus;strokeWidth=2;whiteSpace=wrap;" vertex="1" parent="1">
          <mxGeometry x="185" y="4097" width="175" height="175" as="geometry" />
        </mxCell>
        <mxCell id="OuKS78Ats9uxQYEp-e0J-8" value="Seek advice" style="rounded=1;absoluteArcSize=1;arcSize=14;whiteSpace=wrap;strokeWidth=2;" vertex="1" parent="1">
          <mxGeometry x="248" y="4344" width="102" height="37" as="geometry" />
        </mxCell>
        <mxCell id="OuKS78Ats9uxQYEp-e0J-9" value="Keep searching" style="rounded=1;absoluteArcSize=1;arcSize=14;whiteSpace=wrap;strokeWidth=2;" vertex="1" parent="1">
          <mxGeometry x="360" y="3683" width="123" height="37" as="geometry" />
        </mxCell>
        <mxCell id="OuKS78Ats9uxQYEp-e0J-10" value="" style="curved=1;startArrow=none;endArrow=block;exitX=0.49;exitY=1;entryX=0.5;entryY=0;rounded=0;" edge="1" parent="1" source="OuKS78Ats9uxQYEp-e0J-1" target="OuKS78Ats9uxQYEp-e0J-2">
          <mxGeometry relative="1" as="geometry">
            <Array as="points" />
          </mxGeometry>
        </mxCell>
        <mxCell id="OuKS78Ats9uxQYEp-e0J-11" value="Yes" style="curved=1;startArrow=none;endArrow=block;exitX=0;exitY=1;entryX=0.5;entryY=0;rounded=0;" edge="1" parent="1" source="OuKS78Ats9uxQYEp-e0J-2" target="OuKS78Ats9uxQYEp-e0J-3">
          <mxGeometry relative="1" as="geometry">
            <Array as="points">
              <mxPoint x="246" y="3647" />
            </Array>
          </mxGeometry>
        </mxCell>
        <mxCell id="OuKS78Ats9uxQYEp-e0J-12" value="" style="curved=1;startArrow=none;endArrow=block;exitX=0.5;exitY=1;entryX=0.5;entryY=0;rounded=0;" edge="1" parent="1" source="OuKS78Ats9uxQYEp-e0J-3" target="OuKS78Ats9uxQYEp-e0J-4">
          <mxGeometry relative="1" as="geometry">
            <Array as="points" />
          </mxGeometry>
        </mxCell>
        <mxCell id="OuKS78Ats9uxQYEp-e0J-13" value="Yes" style="curved=1;startArrow=none;endArrow=block;exitX=0;exitY=0.84;entryX=0.5;entryY=0;rounded=0;" edge="1" parent="1" source="OuKS78Ats9uxQYEp-e0J-4" target="OuKS78Ats9uxQYEp-e0J-5">
          <mxGeometry relative="1" as="geometry">
            <Array as="points">
              <mxPoint x="85" y="3952" />
            </Array>
          </mxGeometry>
        </mxCell>
        <mxCell id="OuKS78Ats9uxQYEp-e0J-14" value="No" style="curved=1;startArrow=none;endArrow=block;exitX=0.62;exitY=1;entryX=0.5;entryY=0;rounded=0;" edge="1" parent="1" source="OuKS78Ats9uxQYEp-e0J-4" target="OuKS78Ats9uxQYEp-e0J-6">
          <mxGeometry relative="1" as="geometry">
            <Array as="points">
              <mxPoint x="273" y="3952" />
            </Array>
          </mxGeometry>
        </mxCell>
        <mxCell id="OuKS78Ats9uxQYEp-e0J-15" value="" style="curved=1;startArrow=none;endArrow=block;exitX=0.46;exitY=1;entryX=0.44;entryY=0;rounded=0;" edge="1" parent="1" source="OuKS78Ats9uxQYEp-e0J-6" target="OuKS78Ats9uxQYEp-e0J-7">
          <mxGeometry relative="1" as="geometry">
            <Array as="points">
              <mxPoint x="257" y="4061" />
            </Array>
          </mxGeometry>
        </mxCell>
        <mxCell id="OuKS78Ats9uxQYEp-e0J-16" value="Yes" style="curved=1;startArrow=none;endArrow=block;exitX=0.69;exitY=0;entryX=0.61;entryY=1;rounded=0;" edge="1" parent="1" source="OuKS78Ats9uxQYEp-e0J-7" target="OuKS78Ats9uxQYEp-e0J-6">
          <mxGeometry relative="1" as="geometry">
            <Array as="points">
              <mxPoint x="318" y="4061" />
            </Array>
          </mxGeometry>
        </mxCell>
        <mxCell id="OuKS78Ats9uxQYEp-e0J-17" value="No" style="curved=1;startArrow=none;endArrow=block;exitX=0.5;exitY=1;entryX=0.41;entryY=0;rounded=0;" edge="1" parent="1" source="OuKS78Ats9uxQYEp-e0J-7" target="OuKS78Ats9uxQYEp-e0J-8">
          <mxGeometry relative="1" as="geometry">
            <Array as="points">
              <mxPoint x="273" y="4308" />
            </Array>
          </mxGeometry>
        </mxCell>
        <mxCell id="OuKS78Ats9uxQYEp-e0J-18" value="" style="curved=1;startArrow=none;endArrow=block;exitX=0.82;exitY=0;entryX=1;entryY=0.87;rounded=0;" edge="1" parent="1" source="OuKS78Ats9uxQYEp-e0J-8" target="OuKS78Ats9uxQYEp-e0J-4">
          <mxGeometry relative="1" as="geometry">
            <Array as="points">
              <mxPoint x="395" y="4308" />
              <mxPoint x="395" y="3952" />
            </Array>
          </mxGeometry>
        </mxCell>
        <mxCell id="OuKS78Ats9uxQYEp-e0J-19" value="No" style="curved=1;startArrow=none;endArrow=block;exitX=0.77;exitY=1;entryX=0.5;entryY=0;rounded=0;" edge="1" parent="1" source="OuKS78Ats9uxQYEp-e0J-2" target="OuKS78Ats9uxQYEp-e0J-9">
          <mxGeometry relative="1" as="geometry">
            <Array as="points">
              <mxPoint x="421" y="3647" />
            </Array>
          </mxGeometry>
        </mxCell>
        <mxCell id="OuKS78Ats9uxQYEp-e0J-20" value="Start" style="ellipse;aspect=fixed;strokeWidth=2;whiteSpace=wrap;" vertex="1" parent="1">
          <mxGeometry x="560" y="3534" width="49" height="49" as="geometry" />
        </mxCell>
        <mxCell id="OuKS78Ats9uxQYEp-e0J-21" value="Initialize" style="rounded=1;absoluteArcSize=1;arcSize=14;whiteSpace=wrap;strokeWidth=2;" vertex="1" parent="1">
          <mxGeometry x="659" y="3540" width="77" height="37" as="geometry" />
        </mxCell>
        <mxCell id="OuKS78Ats9uxQYEp-e0J-22" value="Condition" style="rhombus;strokeWidth=2;whiteSpace=wrap;" vertex="1" parent="1">
          <mxGeometry x="786" y="3498" width="121" height="121" as="geometry" />
        </mxCell>
        <mxCell id="OuKS78Ats9uxQYEp-e0J-23" value="Compute" style="rounded=1;absoluteArcSize=1;arcSize=14;whiteSpace=wrap;strokeWidth=2;" vertex="1" parent="1">
          <mxGeometry x="979" y="3584" width="79" height="37" as="geometry" />
        </mxCell>
        <mxCell id="OuKS78Ats9uxQYEp-e0J-24" value="Another condition" style="rhombus;strokeWidth=2;whiteSpace=wrap;" vertex="1" parent="1">
          <mxGeometry x="1127" y="3575" width="180" height="180" as="geometry" />
        </mxCell>
        <mxCell id="OuKS78Ats9uxQYEp-e0J-25" value="Exit" style="rounded=1;absoluteArcSize=1;arcSize=14;whiteSpace=wrap;strokeWidth=2;" vertex="1" parent="1">
          <mxGeometry x="1397" y="3462" width="43" height="37" as="geometry" />
        </mxCell>
        <mxCell id="OuKS78Ats9uxQYEp-e0J-26" value="Continue" style="rounded=1;absoluteArcSize=1;arcSize=14;whiteSpace=wrap;strokeWidth=2;" vertex="1" parent="1">
          <mxGeometry x="1379" y="3584" width="78" height="37" as="geometry" />
        </mxCell>
        <mxCell id="OuKS78Ats9uxQYEp-e0J-27" value="End" style="ellipse;aspect=fixed;strokeWidth=2;whiteSpace=wrap;" vertex="1" parent="1">
          <mxGeometry x="1507" y="3460" width="41" height="41" as="geometry" />
        </mxCell>
        <mxCell id="OuKS78Ats9uxQYEp-e0J-28" value="" style="curved=1;startArrow=none;endArrow=block;exitX=1;exitY=0.5;entryX=0;entryY=0.5;rounded=0;" edge="1" parent="1" source="OuKS78Ats9uxQYEp-e0J-20" target="OuKS78Ats9uxQYEp-e0J-21">
          <mxGeometry relative="1" as="geometry">
            <Array as="points" />
          </mxGeometry>
        </mxCell>
        <mxCell id="OuKS78Ats9uxQYEp-e0J-29" value="" style="curved=1;startArrow=none;endArrow=block;exitX=1;exitY=0.5;entryX=0;entryY=0.5;rounded=0;" edge="1" parent="1" source="OuKS78Ats9uxQYEp-e0J-21" target="OuKS78Ats9uxQYEp-e0J-22">
          <mxGeometry relative="1" as="geometry">
            <Array as="points" />
          </mxGeometry>
        </mxCell>
        <mxCell id="OuKS78Ats9uxQYEp-e0J-30" value="Yes" style="curved=1;startArrow=none;endArrow=block;exitX=1;exitY=0.73;entryX=0;entryY=0.49;rounded=0;" edge="1" parent="1" source="OuKS78Ats9uxQYEp-e0J-22" target="OuKS78Ats9uxQYEp-e0J-23">
          <mxGeometry relative="1" as="geometry">
            <Array as="points">
              <mxPoint x="943" y="3602" />
            </Array>
          </mxGeometry>
        </mxCell>
        <mxCell id="OuKS78Ats9uxQYEp-e0J-31" value="" style="curved=1;startArrow=none;endArrow=block;exitX=0.78;exitY=0.99;entryX=0;entryY=0.5;rounded=0;" edge="1" parent="1" source="OuKS78Ats9uxQYEp-e0J-23" target="OuKS78Ats9uxQYEp-e0J-24">
          <mxGeometry relative="1" as="geometry">
            <Array as="points">
              <mxPoint x="1093" y="3665" />
            </Array>
          </mxGeometry>
        </mxCell>
        <mxCell id="OuKS78Ats9uxQYEp-e0J-32" value="No" style="curved=1;startArrow=none;endArrow=block;exitX=0.9;exitY=0;entryX=-0.01;entryY=0.72;rounded=0;" edge="1" parent="1" source="OuKS78Ats9uxQYEp-e0J-24" target="OuKS78Ats9uxQYEp-e0J-25">
          <mxGeometry relative="1" as="geometry">
            <Array as="points">
              <mxPoint x="1343" y="3509" />
            </Array>
          </mxGeometry>
        </mxCell>
        <mxCell id="OuKS78Ats9uxQYEp-e0J-33" value="Yes" style="curved=1;startArrow=none;endArrow=block;exitX=1;exitY=0.5;entryX=0.22;entryY=0.99;rounded=0;" edge="1" parent="1" source="OuKS78Ats9uxQYEp-e0J-24" target="OuKS78Ats9uxQYEp-e0J-26">
          <mxGeometry relative="1" as="geometry">
            <Array as="points">
              <mxPoint x="1343" y="3665" />
            </Array>
          </mxGeometry>
        </mxCell>
        <mxCell id="OuKS78Ats9uxQYEp-e0J-34" value="" style="curved=1;startArrow=none;endArrow=block;exitX=0.22;exitY=-0.01;entryX=0.78;entryY=-0.01;rounded=0;" edge="1" parent="1" source="OuKS78Ats9uxQYEp-e0J-26" target="OuKS78Ats9uxQYEp-e0J-23">
          <mxGeometry relative="1" as="geometry">
            <Array as="points">
              <mxPoint x="1343" y="3540" />
              <mxPoint x="1093" y="3540" />
            </Array>
          </mxGeometry>
        </mxCell>
        <mxCell id="OuKS78Ats9uxQYEp-e0J-35" value="No" style="curved=1;startArrow=none;endArrow=block;exitX=1;exitY=0.02;entryX=-0.01;entryY=0.38;rounded=0;" edge="1" parent="1" source="OuKS78Ats9uxQYEp-e0J-22" target="OuKS78Ats9uxQYEp-e0J-25">
          <mxGeometry relative="1" as="geometry">
            <Array as="points">
              <mxPoint x="943" y="3465" />
              <mxPoint x="1343" y="3465" />
            </Array>
          </mxGeometry>
        </mxCell>
        <mxCell id="OuKS78Ats9uxQYEp-e0J-36" value="" style="curved=1;startArrow=none;endArrow=block;exitX=0.99;exitY=0.5;entryX=0;entryY=0.5;rounded=0;" edge="1" parent="1" source="OuKS78Ats9uxQYEp-e0J-25" target="OuKS78Ats9uxQYEp-e0J-27">
          <mxGeometry relative="1" as="geometry">
            <Array as="points" />
          </mxGeometry>
        </mxCell>
        <mxCell id="OuKS78Ats9uxQYEp-e0J-46" value="" style="whiteSpace=wrap;html=1;rounded=0;shadow=0;comic=0;labelBackgroundColor=none;strokeWidth=1;fontFamily=Verdana;fontSize=12;align=center;" vertex="1" parent="1">
          <mxGeometry x="712" y="4381" width="400" height="900" as="geometry" />
        </mxCell>
        <mxCell id="OuKS78Ats9uxQYEp-e0J-47" value="80x40" style="shape=rect;dashed=0;shadow=0;html=1;whiteSpace=wrap;rotation=270;rounded=0;comic=0;labelBackgroundColor=none;strokeWidth=1;fontFamily=Verdana;fontSize=12;align=center;" vertex="1" parent="1">
          <mxGeometry x="385" y="4709" width="695" height="40" as="geometry" />
        </mxCell>
        <mxCell id="OuKS78Ats9uxQYEp-e0J-48" value="80x40" style="shape=rect;dashed=0;shadow=0;html=1;whiteSpace=wrap;rotation=270;rounded=0;comic=0;labelBackgroundColor=none;strokeWidth=1;fontFamily=Verdana;fontSize=12;align=center;" vertex="1" parent="1">
          <mxGeometry x="745" y="4709" width="695" height="40" as="geometry" />
        </mxCell>
        <mxCell id="OuKS78Ats9uxQYEp-e0J-49" value="60x40" style="shape=rect;dashed=0;shadow=0;html=1;whiteSpace=wrap;rounded=0;comic=0;labelBackgroundColor=none;strokeWidth=1;fontFamily=Verdana;fontSize=12;lign=center;" vertex="1" parent="1">
          <mxGeometry x="753" y="4381" width="319" height="30" as="geometry" />
        </mxCell>
        <mxCell id="OuKS78Ats9uxQYEp-e0J-50" value="" style="verticalLabelPosition=bottom;dashed=0;shadow=0;html=1;align=center;verticalAlign=top;strokeWidth=1;shape=mxgraph.cabinets.motorized_switch_3p;rounded=0;comic=0;labelBackgroundColor=none;fontFamily=Verdana;fontSize=12" vertex="1" parent="1">
          <mxGeometry x="962" y="4981" width="85" height="70" as="geometry" />
        </mxCell>
        <mxCell id="OuKS78Ats9uxQYEp-e0J-51" value="" style="whiteSpace=wrap;html=1;rounded=0;shadow=0;comic=0;labelBackgroundColor=none;strokeWidth=1;fontFamily=Verdana;fontSize=12;align=center;rotation=0;" vertex="1" parent="1">
          <mxGeometry x="732" y="5241" width="361" height="12" as="geometry" />
        </mxCell>
        <mxCell id="OuKS78Ats9uxQYEp-e0J-52" value="" style="whiteSpace=wrap;html=1;rounded=0;shadow=0;comic=0;labelBackgroundColor=none;strokeWidth=1;fontFamily=Verdana;fontSize=12;align=center;rotation=0;" vertex="1" parent="1">
          <mxGeometry x="732" y="5221" width="361" height="12" as="geometry" />
        </mxCell>
        <mxCell id="OuKS78Ats9uxQYEp-e0J-53" value="" style="whiteSpace=wrap;html=1;rounded=0;shadow=0;comic=0;labelBackgroundColor=none;strokeWidth=1;fontFamily=Verdana;fontSize=12;align=center;rotation=0;" vertex="1" parent="1">
          <mxGeometry x="732" y="5201" width="361" height="12" as="geometry" />
        </mxCell>
        <mxCell id="OuKS78Ats9uxQYEp-e0J-54" value="" style="whiteSpace=wrap;html=1;rounded=0;shadow=0;comic=0;labelBackgroundColor=none;strokeWidth=1;fontFamily=Verdana;fontSize=12;align=center;rotation=0;" vertex="1" parent="1">
          <mxGeometry x="732" y="5181" width="361" height="12" as="geometry" />
        </mxCell>
        <mxCell id="OuKS78Ats9uxQYEp-e0J-55" value="" style="ellipse;whiteSpace=wrap;html=1;rounded=0;shadow=0;comic=0;labelBackgroundColor=none;strokeWidth=1;fontFamily=Verdana;fontSize=12;align=center;dashed=1;" vertex="1" parent="1">
          <mxGeometry x="732" y="5241" width="12" height="12" as="geometry" />
        </mxCell>
        <mxCell id="OuKS78Ats9uxQYEp-e0J-56" value="" style="ellipse;whiteSpace=wrap;html=1;rounded=0;shadow=0;comic=0;labelBackgroundColor=none;strokeWidth=1;fontFamily=Verdana;fontSize=12;align=center;dashed=1;" vertex="1" parent="1">
          <mxGeometry x="907" y="5241" width="12" height="12" as="geometry" />
        </mxCell>
        <mxCell id="OuKS78Ats9uxQYEp-e0J-57" value="" style="ellipse;whiteSpace=wrap;html=1;rounded=0;shadow=0;comic=0;labelBackgroundColor=none;strokeWidth=1;fontFamily=Verdana;fontSize=12;align=center;dashed=1;" vertex="1" parent="1">
          <mxGeometry x="1081" y="5241" width="12" height="12" as="geometry" />
        </mxCell>
        <mxCell id="OuKS78Ats9uxQYEp-e0J-58" value="" style="ellipse;whiteSpace=wrap;html=1;rounded=0;shadow=0;comic=0;labelBackgroundColor=none;strokeWidth=1;fontFamily=Verdana;fontSize=12;align=center;dashed=1;" vertex="1" parent="1">
          <mxGeometry x="732" y="5221" width="12" height="12" as="geometry" />
        </mxCell>
        <mxCell id="OuKS78Ats9uxQYEp-e0J-59" value="" style="ellipse;whiteSpace=wrap;html=1;rounded=0;shadow=0;comic=0;labelBackgroundColor=none;strokeWidth=1;fontFamily=Verdana;fontSize=12;align=center;dashed=1;" vertex="1" parent="1">
          <mxGeometry x="907" y="5221" width="12" height="12" as="geometry" />
        </mxCell>
        <mxCell id="OuKS78Ats9uxQYEp-e0J-60" value="" style="ellipse;whiteSpace=wrap;html=1;rounded=0;shadow=0;comic=0;labelBackgroundColor=none;strokeWidth=1;fontFamily=Verdana;fontSize=12;align=center;dashed=1;" vertex="1" parent="1">
          <mxGeometry x="1081" y="5221" width="12" height="12" as="geometry" />
        </mxCell>
        <mxCell id="OuKS78Ats9uxQYEp-e0J-61" value="" style="ellipse;whiteSpace=wrap;html=1;rounded=0;shadow=0;comic=0;labelBackgroundColor=none;strokeWidth=1;fontFamily=Verdana;fontSize=12;align=center;dashed=1;" vertex="1" parent="1">
          <mxGeometry x="732" y="5201" width="12" height="12" as="geometry" />
        </mxCell>
        <mxCell id="OuKS78Ats9uxQYEp-e0J-62" value="" style="ellipse;whiteSpace=wrap;html=1;rounded=0;shadow=0;comic=0;labelBackgroundColor=none;strokeWidth=1;fontFamily=Verdana;fontSize=12;align=center;dashed=1;" vertex="1" parent="1">
          <mxGeometry x="907" y="5201" width="12" height="12" as="geometry" />
        </mxCell>
        <mxCell id="OuKS78Ats9uxQYEp-e0J-63" value="" style="ellipse;whiteSpace=wrap;html=1;rounded=0;shadow=0;comic=0;labelBackgroundColor=none;strokeWidth=1;fontFamily=Verdana;fontSize=12;align=center;dashed=1;" vertex="1" parent="1">
          <mxGeometry x="1081" y="5201" width="12" height="12" as="geometry" />
        </mxCell>
        <mxCell id="OuKS78Ats9uxQYEp-e0J-64" value="" style="ellipse;whiteSpace=wrap;html=1;rounded=0;shadow=0;comic=0;labelBackgroundColor=none;strokeWidth=1;fontFamily=Verdana;fontSize=12;align=center;dashed=1;" vertex="1" parent="1">
          <mxGeometry x="732" y="5181" width="12" height="12" as="geometry" />
        </mxCell>
        <mxCell id="OuKS78Ats9uxQYEp-e0J-65" value="" style="ellipse;whiteSpace=wrap;html=1;rounded=0;shadow=0;comic=0;labelBackgroundColor=none;strokeWidth=1;fontFamily=Verdana;fontSize=12;align=center;dashed=1;" vertex="1" parent="1">
          <mxGeometry x="907" y="5181" width="12" height="12" as="geometry" />
        </mxCell>
        <mxCell id="OuKS78Ats9uxQYEp-e0J-66" value="" style="ellipse;whiteSpace=wrap;html=1;rounded=0;shadow=0;comic=0;labelBackgroundColor=none;strokeWidth=1;fontFamily=Verdana;fontSize=12;align=center;dashed=1;" vertex="1" parent="1">
          <mxGeometry x="1081" y="5181" width="12" height="12" as="geometry" />
        </mxCell>
        <mxCell id="OuKS78Ats9uxQYEp-e0J-67" value="" style="whiteSpace=wrap;html=1;rounded=0;shadow=0;comic=0;labelBackgroundColor=none;strokeWidth=1;ontFamily=Verdana;fontSize=12;align=center;rotation=-90;" vertex="1" parent="1">
          <mxGeometry x="947" y="5109" width="157" height="12" as="geometry" />
        </mxCell>
        <mxCell id="OuKS78Ats9uxQYEp-e0J-68" value="" style="whiteSpace=wrap;html=1;rounded=0;shadow=0;comic=0;labelBackgroundColor=none;strokeWidth=1;ontFamily=Verdana;fontSize=12;align=center;rotation=-90;" vertex="1" parent="1">
          <mxGeometry x="912" y="5119" width="177" height="12" as="geometry" />
        </mxCell>
        <mxCell id="OuKS78Ats9uxQYEp-e0J-69" value="" style="whiteSpace=wrap;html=1;rounded=0;shadow=0;comic=0;labelBackgroundColor=none;strokeWidth=1;ontFamily=Verdana;fontSize=12;align=center;rotation=-90;" vertex="1" parent="1">
          <mxGeometry x="877" y="5129" width="197" height="12" as="geometry" />
        </mxCell>
        <mxCell id="OuKS78Ats9uxQYEp-e0J-70" value="" style="whiteSpace=wrap;html=1;rounded=0;shadow=0;comic=0;labelBackgroundColor=none;strokeWidth=1;fontFamily=Verdana;fontSize=12;align=center;rotation=-90;" vertex="1" parent="1">
          <mxGeometry x="896" y="4910" width="159" height="12" as="geometry" />
        </mxCell>
        <mxCell id="OuKS78Ats9uxQYEp-e0J-71" value="" style="whiteSpace=wrap;html=1;rounded=0;shadow=0;comic=0;labelBackgroundColor=none;strokeWidth=1;fontFamily=Verdana;fontSize=12;align=center;rotation=-90;" vertex="1" parent="1">
          <mxGeometry x="921" y="4910" width="159" height="12" as="geometry" />
        </mxCell>
        <mxCell id="OuKS78Ats9uxQYEp-e0J-72" value="" style="whiteSpace=wrap;html=1;rounded=0;shadow=0;comic=0;labelBackgroundColor=none;strokeWidth=1;fontFamily=Verdana;fontSize=12;align=center;rotation=-90;" vertex="1" parent="1">
          <mxGeometry x="946" y="4910" width="159" height="12" as="geometry" />
        </mxCell>
        <mxCell id="OuKS78Ats9uxQYEp-e0J-73" value="60x40" style="shape=rect;dashed=0;shadow=0;html=1;whiteSpace=wrap;rounded=0;comic=0;labelBackgroundColor=none;strokeWidth=1;fontFamily=Verdana;fontSize=12;align=center;" vertex="1" parent="1">
          <mxGeometry x="753" y="5047" width="319" height="30" as="geometry" />
        </mxCell>
        <mxCell id="OuKS78Ats9uxQYEp-e0J-74" value="60x40" style="shape=rect;dashed=0;shadow=0;html=1;whiteSpace=wrap;rounded=0;comic=0;labelBackgroundColor=none;strokeWidth=1;fontFamily=Verdana;fontSize=12;align=center;" vertex="1" parent="1">
          <mxGeometry x="753" y="4791" width="319" height="30" as="geometry" />
        </mxCell>
        <mxCell id="OuKS78Ats9uxQYEp-e0J-75" value="60x40" style="shape=rect;dashed=0;shadow=0;html=1;whiteSpace=wrap;rounded=0;comic=0;labelBackgroundColor=none;strokeWidth=1;fontFamily=Verdana;fontSize=12;align=center;" vertex="1" parent="1">
          <mxGeometry x="753" y="4689" width="319" height="30" as="geometry" />
        </mxCell>
        <mxCell id="OuKS78Ats9uxQYEp-e0J-76" value="60x40" style="shape=rect;dashed=0;shadow=0;html=1;whiteSpace=wrap;rounded=0;comic=0;labelBackgroundColor=none;strokeWidth=1;fontFamily=Verdana;fontSize=12;align=center;" vertex="1" parent="1">
          <mxGeometry x="753" y="4481" width="319" height="30" as="geometry" />
        </mxCell>
        <mxCell id="OuKS78Ats9uxQYEp-e0J-77" value="" style="verticalLabelPosition=bottom;dashed=0;shadow=0;html=1;align=center;verticalAlign=top;strokeWidth=1;shape=mxgraph.cabinets.cb_3p;rounded=0;comic=0;labelBackgroundColor=none;fontFamily=Verdana;fontSize=12" vertex="1" parent="1">
          <mxGeometry x="762" y="4421" width="27" height="50" as="geometry" />
        </mxCell>
        <mxCell id="OuKS78Ats9uxQYEp-e0J-78" value="" style="verticalLabelPosition=bottom;dashed=0;shadow=0;html=1;align=center;verticalAlign=top;strokeWidth=1;shape=mxgraph.cabinets.cb_3p;rounded=0;comic=0;labelBackgroundColor=none;fontFamily=Verdana;fontSize=12" vertex="1" parent="1">
          <mxGeometry x="789" y="4421" width="27" height="50" as="geometry" />
        </mxCell>
        <mxCell id="OuKS78Ats9uxQYEp-e0J-79" value="" style="verticalLabelPosition=bottom;dashed=0;shadow=0;html=1;align=center;verticalAlign=top;strokeWidth=1;shape=mxgraph.cabinets.cb_3p;rounded=0;comic=0;labelBackgroundColor=none;fontFamily=Verdana;fontSize=12" vertex="1" parent="1">
          <mxGeometry x="816" y="4421" width="27" height="50" as="geometry" />
        </mxCell>
        <mxCell id="OuKS78Ats9uxQYEp-e0J-80" value="" style="verticalLabelPosition=bottom;dashed=0;shadow=0;html=1;align=center;verticalAlign=top;strokeWidth=1;shape=mxgraph.cabinets.cb_3p;rounded=0;comic=0;labelBackgroundColor=none;fontFamily=Verdana;fontSize=12" vertex="1" parent="1">
          <mxGeometry x="843" y="4421" width="27" height="50" as="geometry" />
        </mxCell>
        <mxCell id="OuKS78Ats9uxQYEp-e0J-81" value="" style="verticalLabelPosition=bottom;dashed=0;shadow=0;html=1;align=center;verticalAlign=top;strokeWidth=1;shape=mxgraph.cabinets.cb_3p;rounded=0;comic=0;labelBackgroundColor=none;fontFamily=Verdana;fontSize=12" vertex="1" parent="1">
          <mxGeometry x="870" y="4421" width="27" height="50" as="geometry" />
        </mxCell>
        <mxCell id="OuKS78Ats9uxQYEp-e0J-82" value="" style="verticalLabelPosition=bottom;dashed=0;shadow=0;html=1;align=center;verticalAlign=top;strokeWidth=1;shape=mxgraph.cabinets.cb_3p;rounded=0;comic=0;labelBackgroundColor=none;fontFamily=Verdana;fontSize=12" vertex="1" parent="1">
          <mxGeometry x="897" y="4421" width="27" height="50" as="geometry" />
        </mxCell>
        <mxCell id="OuKS78Ats9uxQYEp-e0J-83" value="" style="verticalLabelPosition=bottom;dashed=0;shadow=0;html=1;align=center;verticalAlign=top;strokeWidth=1;shape=mxgraph.cabinets.cb_3p;rounded=0;comic=0;labelBackgroundColor=none;fontFamily=Verdana;fontSize=12" vertex="1" parent="1">
          <mxGeometry x="924" y="4421" width="27" height="50" as="geometry" />
        </mxCell>
        <mxCell id="OuKS78Ats9uxQYEp-e0J-84" value="" style="verticalLabelPosition=bottom;dashed=0;shadow=0;html=1;align=center;verticalAlign=top;strokeWidth=1;shape=mxgraph.cabinets.cb_3p;rounded=0;comic=0;labelBackgroundColor=none;fontFamily=Verdana;fontSize=12" vertex="1" parent="1">
          <mxGeometry x="951" y="4421" width="27" height="50" as="geometry" />
        </mxCell>
        <mxCell id="OuKS78Ats9uxQYEp-e0J-85" value="" style="verticalLabelPosition=bottom;dashed=0;shadow=0;html=1;align=center;verticalAlign=top;strokeWidth=1;shape=mxgraph.cabinets.cb_3p;rounded=0;comic=0;labelBackgroundColor=none;fontFamily=Verdana;fontSize=12" vertex="1" parent="1">
          <mxGeometry x="978" y="4421" width="27" height="50" as="geometry" />
        </mxCell>
        <mxCell id="OuKS78Ats9uxQYEp-e0J-86" value="" style="verticalLabelPosition=bottom;dashed=0;shadow=0;html=1;align=center;verticalAlign=top;strokeWidth=1;shape=mxgraph.cabinets.cb_3p;rounded=0;comic=0;labelBackgroundColor=none;fontFamily=Verdana;fontSize=12" vertex="1" parent="1">
          <mxGeometry x="1005" y="4421" width="27" height="50" as="geometry" />
        </mxCell>
        <mxCell id="OuKS78Ats9uxQYEp-e0J-87" value="" style="verticalLabelPosition=bottom;dashed=0;shadow=0;html=1;align=center;verticalAlign=top;strokeWidth=1;shape=mxgraph.cabinets.contactor_32_125a;rounded=0;comic=0;labelBackgroundColor=none;fontFamily=Verdana;fontSize=12" vertex="1" parent="1">
          <mxGeometry x="758" y="4621" width="30" height="50" as="geometry" />
        </mxCell>
        <mxCell id="OuKS78Ats9uxQYEp-e0J-88" value="" style="verticalLabelPosition=bottom;dashed=0;shadow=0;html=1;align=center;verticalAlign=top;strokeWidth=1;shape=mxgraph.cabinets.contactor_32_125a;rounded=0;comic=0;labelBackgroundColor=none;fontFamily=Verdana;fontSize=12" vertex="1" parent="1">
          <mxGeometry x="788" y="4621" width="30" height="50" as="geometry" />
        </mxCell>
        <mxCell id="OuKS78Ats9uxQYEp-e0J-89" value="" style="verticalLabelPosition=bottom;dashed=0;shadow=0;html=1;align=center;verticalAlign=top;strokeWidth=1;shape=mxgraph.cabinets.contactor_32_125a;rounded=0;comic=0;labelBackgroundColor=none;fontFamily=Verdana;fontSize=12" vertex="1" parent="1">
          <mxGeometry x="818" y="4621" width="30" height="50" as="geometry" />
        </mxCell>
        <mxCell id="OuKS78Ats9uxQYEp-e0J-90" value="" style="verticalLabelPosition=bottom;dashed=0;shadow=0;html=1;align=center;verticalAlign=top;strokeWidth=1;shape=mxgraph.cabinets.contactor_32_125a;rounded=0;comic=0;labelBackgroundColor=none;fontFamily=Verdana;fontSize=12" vertex="1" parent="1">
          <mxGeometry x="848" y="4621" width="30" height="50" as="geometry" />
        </mxCell>
        <mxCell id="OuKS78Ats9uxQYEp-e0J-91" value="" style="verticalLabelPosition=bottom;dashed=0;shadow=0;html=1;align=center;verticalAlign=top;strokeWidth=1;shape=mxgraph.cabinets.contactor_32_125a;rounded=0;comic=0;labelBackgroundColor=none;fontFamily=Verdana;fontSize=12" vertex="1" parent="1">
          <mxGeometry x="878" y="4621" width="30" height="50" as="geometry" />
        </mxCell>
        <mxCell id="OuKS78Ats9uxQYEp-e0J-92" value="" style="verticalLabelPosition=bottom;dashed=0;shadow=0;html=1;align=center;verticalAlign=top;strokeWidth=1;shape=mxgraph.cabinets.contactor_32_125a;rounded=0;comic=0;labelBackgroundColor=none;fontFamily=Verdana;fontSize=12" vertex="1" parent="1">
          <mxGeometry x="908" y="4621" width="30" height="50" as="geometry" />
        </mxCell>
        <mxCell id="OuKS78Ats9uxQYEp-e0J-93" value="" style="verticalLabelPosition=bottom;dashed=0;shadow=0;html=1;align=center;verticalAlign=top;strokeWidth=1;shape=mxgraph.cabinets.contactor_32_125a;rounded=0;comic=0;labelBackgroundColor=none;fontFamily=Verdana;fontSize=12" vertex="1" parent="1">
          <mxGeometry x="938" y="4621" width="30" height="50" as="geometry" />
        </mxCell>
        <mxCell id="OuKS78Ats9uxQYEp-e0J-94" value="" style="verticalLabelPosition=bottom;dashed=0;shadow=0;html=1;align=center;verticalAlign=top;strokeWidth=1;shape=mxgraph.cabinets.contactor_32_125a;rounded=0;comic=0;labelBackgroundColor=none;fontFamily=Verdana;fontSize=12" vertex="1" parent="1">
          <mxGeometry x="968" y="4621" width="30" height="50" as="geometry" />
        </mxCell>
        <mxCell id="OuKS78Ats9uxQYEp-e0J-95" value="" style="verticalLabelPosition=bottom;dashed=0;shadow=0;html=1;align=center;verticalAlign=top;strokeWidth=1;shape=mxgraph.cabinets.contactor_32_125a;rounded=0;comic=0;labelBackgroundColor=none;fontFamily=Verdana;fontSize=12" vertex="1" parent="1">
          <mxGeometry x="998" y="4621" width="30" height="50" as="geometry" />
        </mxCell>
        <mxCell id="OuKS78Ats9uxQYEp-e0J-96" value="" style="verticalLabelPosition=bottom;dashed=0;shadow=0;html=1;align=center;verticalAlign=top;strokeWidth=1;shape=mxgraph.cabinets.contactor_32_125a;rounded=0;comic=0;labelBackgroundColor=none;fontFamily=Verdana;fontSize=12" vertex="1" parent="1">
          <mxGeometry x="1028" y="4621" width="30" height="50" as="geometry" />
        </mxCell>
        <mxCell id="OuKS78Ats9uxQYEp-e0J-97" value="60x40" style="shape=rect;dashed=0;shadow=0;html=1;whiteSpace=wrap;rounded=0;comic=0;labelBackgroundColor=none;strokeWidth=1;fontFamily=Verdana;fontSize=12;align=center;" vertex="1" parent="1">
          <mxGeometry x="753" y="4581" width="319" height="30" as="geometry" />
        </mxCell>
        <mxCell id="OuKS78Ats9uxQYEp-e0J-98" value="" style="verticalLabelPosition=bottom;dashed=0;shadow=0;html=1;align=center;verticalAlign=top;strokeWidth=1;shape=mxgraph.cabinets.motor_cb_1_32a;rounded=0;comic=0;labelBackgroundColor=none;fontFamily=Verdana;fontColor=#000000;" vertex="1" parent="1">
          <mxGeometry x="757" y="4522" width="27" height="43" as="geometry" />
        </mxCell>
        <mxCell id="OuKS78Ats9uxQYEp-e0J-99" value="" style="verticalLabelPosition=bottom;dashed=0;shadow=0;html=1;align=center;verticalAlign=top;strokeWidth=1;shape=mxgraph.cabinets.motor_cb_1_32a;rounded=0;comic=0;labelBackgroundColor=none;fontFamily=Verdana;fontColor=#000000;" vertex="1" parent="1">
          <mxGeometry x="787" y="4522" width="27" height="43" as="geometry" />
        </mxCell>
        <mxCell id="OuKS78Ats9uxQYEp-e0J-100" value="" style="verticalLabelPosition=bottom;dashed=0;shadow=0;html=1;align=center;verticalAlign=top;strokeWidth=1;shape=mxgraph.cabinets.motor_cb_1_32a;rounded=0;comic=0;labelBackgroundColor=none;fontFamily=Verdana;fontColor=#000000;" vertex="1" parent="1">
          <mxGeometry x="818" y="4522" width="27" height="43" as="geometry" />
        </mxCell>
        <mxCell id="OuKS78Ats9uxQYEp-e0J-101" value="" style="verticalLabelPosition=bottom;dashed=0;shadow=0;html=1;align=center;verticalAlign=top;strokeWidth=1;shape=mxgraph.cabinets.motor_cb_1_32a;rounded=0;comic=0;labelBackgroundColor=none;fontFamily=Verdana;fontColor=#000000;" vertex="1" parent="1">
          <mxGeometry x="848" y="4522" width="27" height="43" as="geometry" />
        </mxCell>
        <mxCell id="OuKS78Ats9uxQYEp-e0J-102" value="" style="verticalLabelPosition=bottom;dashed=0;shadow=0;html=1;align=center;verticalAlign=top;strokeWidth=1;shape=mxgraph.cabinets.motor_cb_1_32a;rounded=0;comic=0;labelBackgroundColor=none;fontFamily=Verdana;fontColor=#000000;" vertex="1" parent="1">
          <mxGeometry x="878" y="4522" width="27" height="43" as="geometry" />
        </mxCell>
        <mxCell id="OuKS78Ats9uxQYEp-e0J-103" value="" style="verticalLabelPosition=bottom;dashed=0;shadow=0;html=1;align=center;verticalAlign=top;strokeWidth=1;shape=mxgraph.cabinets.motor_cb_1_32a;rounded=0;comic=0;labelBackgroundColor=none;fontFamily=Verdana;fontColor=#000000;" vertex="1" parent="1">
          <mxGeometry x="909" y="4522" width="27" height="43" as="geometry" />
        </mxCell>
        <mxCell id="OuKS78Ats9uxQYEp-e0J-104" value="" style="verticalLabelPosition=bottom;dashed=0;shadow=0;html=1;align=center;verticalAlign=top;strokeWidth=1;shape=mxgraph.cabinets.motor_cb_1_32a;rounded=0;comic=0;labelBackgroundColor=none;fontFamily=Verdana;fontColor=#000000;" vertex="1" parent="1">
          <mxGeometry x="939" y="4522" width="27" height="43" as="geometry" />
        </mxCell>
        <mxCell id="OuKS78Ats9uxQYEp-e0J-105" value="" style="verticalLabelPosition=bottom;dashed=0;shadow=0;html=1;align=center;verticalAlign=top;strokeWidth=1;shape=mxgraph.cabinets.motor_cb_1_32a;rounded=0;comic=0;labelBackgroundColor=none;fontFamily=Verdana;fontColor=#000000;" vertex="1" parent="1">
          <mxGeometry x="969" y="4522" width="27" height="43" as="geometry" />
        </mxCell>
        <mxCell id="OuKS78Ats9uxQYEp-e0J-106" value="" style="verticalLabelPosition=bottom;dashed=0;shadow=0;html=1;align=center;verticalAlign=top;strokeWidth=1;shape=mxgraph.cabinets.motor_cb_1_32a;rounded=0;comic=0;labelBackgroundColor=none;fontFamily=Verdana;fontColor=#000000;" vertex="1" parent="1">
          <mxGeometry x="1000" y="4522" width="27" height="43" as="geometry" />
        </mxCell>
        <mxCell id="OuKS78Ats9uxQYEp-e0J-107" value="" style="verticalLabelPosition=bottom;dashed=0;shadow=0;html=1;align=center;verticalAlign=top;strokeWidth=1;shape=mxgraph.cabinets.motor_cb_1_32a;rounded=0;comic=0;labelBackgroundColor=none;fontFamily=Verdana;fontColor=#000000;" vertex="1" parent="1">
          <mxGeometry x="1030" y="4522" width="27" height="43" as="geometry" />
        </mxCell>
        <mxCell id="OuKS78Ats9uxQYEp-e0J-108" value="" style="verticalLabelPosition=bottom;dashed=0;shadow=0;html=1;align=center;verticalAlign=top;strokeWidth=1;shape=mxgraph.cabinets.cb_1p;rounded=0;comic=0;labelBackgroundColor=none;fontFamily=Verdana;fontSize=12" vertex="1" parent="1">
          <mxGeometry x="758" y="4731" width="9" height="50" as="geometry" />
        </mxCell>
        <mxCell id="OuKS78Ats9uxQYEp-e0J-109" value="" style="verticalLabelPosition=bottom;dashed=0;shadow=0;html=1;align=center;verticalAlign=top;strokeWidth=1;shape=mxgraph.cabinets.cb_1p;rounded=0;comic=0;labelBackgroundColor=none;fontFamily=Verdana;fontSize=12" vertex="1" parent="1">
          <mxGeometry x="767" y="4731" width="9" height="50" as="geometry" />
        </mxCell>
        <mxCell id="OuKS78Ats9uxQYEp-e0J-110" value="" style="verticalLabelPosition=bottom;dashed=0;shadow=0;html=1;align=center;verticalAlign=top;strokeWidth=1;shape=mxgraph.cabinets.cb_1p;rounded=0;comic=0;labelBackgroundColor=none;fontFamily=Verdana;fontSize=12" vertex="1" parent="1">
          <mxGeometry x="776" y="4731" width="9" height="50" as="geometry" />
        </mxCell>
        <mxCell id="OuKS78Ats9uxQYEp-e0J-111" value="" style="verticalLabelPosition=bottom;dashed=0;shadow=0;html=1;align=center;verticalAlign=top;strokeWidth=1;shape=mxgraph.cabinets.cb_1p;rounded=0;comic=0;labelBackgroundColor=none;fontFamily=Verdana;fontSize=12" vertex="1" parent="1">
          <mxGeometry x="785" y="4731" width="9" height="50" as="geometry" />
        </mxCell>
        <mxCell id="OuKS78Ats9uxQYEp-e0J-112" value="" style="verticalLabelPosition=bottom;dashed=0;shadow=0;html=1;align=center;verticalAlign=top;strokeWidth=1;shape=mxgraph.cabinets.cb_1p;rounded=0;comic=0;labelBackgroundColor=none;fontFamily=Verdana;fontSize=12" vertex="1" parent="1">
          <mxGeometry x="794" y="4731" width="9" height="50" as="geometry" />
        </mxCell>
        <mxCell id="OuKS78Ats9uxQYEp-e0J-113" value="" style="verticalLabelPosition=bottom;dashed=0;shadow=0;html=1;align=center;verticalAlign=top;strokeWidth=1;shape=mxgraph.cabinets.cb_1p;rounded=0;comic=0;labelBackgroundColor=none;fontFamily=Verdana;fontSize=12" vertex="1" parent="1">
          <mxGeometry x="803" y="4731" width="9" height="50" as="geometry" />
        </mxCell>
        <mxCell id="OuKS78Ats9uxQYEp-e0J-114" value="" style="verticalLabelPosition=bottom;dashed=0;shadow=0;html=1;align=center;verticalAlign=top;strokeWidth=1;shape=mxgraph.cabinets.cb_1p;rounded=0;comic=0;labelBackgroundColor=none;fontFamily=Verdana;fontSize=12" vertex="1" parent="1">
          <mxGeometry x="812" y="4731" width="9" height="50" as="geometry" />
        </mxCell>
        <mxCell id="OuKS78Ats9uxQYEp-e0J-115" value="" style="verticalLabelPosition=bottom;dashed=0;shadow=0;html=1;align=center;verticalAlign=top;strokeWidth=1;shape=mxgraph.cabinets.cb_1p;rounded=0;comic=0;labelBackgroundColor=none;fontFamily=Verdana;fontSize=12" vertex="1" parent="1">
          <mxGeometry x="821" y="4731" width="9" height="50" as="geometry" />
        </mxCell>
        <mxCell id="OuKS78Ats9uxQYEp-e0J-116" value="" style="verticalLabelPosition=bottom;dashed=0;shadow=0;html=1;align=center;verticalAlign=top;strokeWidth=1;shape=mxgraph.cabinets.cb_1p;rounded=0;comic=0;labelBackgroundColor=none;fontFamily=Verdana;fontSize=12" vertex="1" parent="1">
          <mxGeometry x="830" y="4731" width="9" height="50" as="geometry" />
        </mxCell>
        <mxCell id="OuKS78Ats9uxQYEp-e0J-117" value="" style="verticalLabelPosition=bottom;dashed=0;shadow=0;html=1;align=center;verticalAlign=top;strokeWidth=1;shape=mxgraph.cabinets.cb_1p;rounded=0;comic=0;labelBackgroundColor=none;fontFamily=Verdana;fontSize=12" vertex="1" parent="1">
          <mxGeometry x="839" y="4731" width="9" height="50" as="geometry" />
        </mxCell>
        <mxCell id="OuKS78Ats9uxQYEp-e0J-118" value="" style="verticalLabelPosition=bottom;dashed=0;shadow=0;html=1;align=center;verticalAlign=top;strokeWidth=1;shape=mxgraph.cabinets.cb_1p;rounded=0;comic=0;labelBackgroundColor=none;fontFamily=Verdana;fontSize=12" vertex="1" parent="1">
          <mxGeometry x="848" y="4731" width="9" height="50" as="geometry" />
        </mxCell>
        <mxCell id="OuKS78Ats9uxQYEp-e0J-119" value="" style="verticalLabelPosition=bottom;dashed=0;shadow=0;html=1;align=center;verticalAlign=top;strokeWidth=1;shape=mxgraph.cabinets.cb_1p;rounded=0;comic=0;labelBackgroundColor=none;fontFamily=Verdana;fontSize=12" vertex="1" parent="1">
          <mxGeometry x="857" y="4731" width="9" height="50" as="geometry" />
        </mxCell>
        <mxCell id="OuKS78Ats9uxQYEp-e0J-120" value="" style="verticalLabelPosition=bottom;dashed=0;shadow=0;html=1;align=center;verticalAlign=top;strokeWidth=1;shape=mxgraph.cabinets.cb_1p;rounded=0;comic=0;labelBackgroundColor=none;fontFamily=Verdana;fontSize=12" vertex="1" parent="1">
          <mxGeometry x="866" y="4731" width="9" height="50" as="geometry" />
        </mxCell>
        <mxCell id="OuKS78Ats9uxQYEp-e0J-121" value="" style="verticalLabelPosition=bottom;dashed=0;shadow=0;html=1;align=center;verticalAlign=top;strokeWidth=1;shape=mxgraph.cabinets.cb_1p;rounded=0;comic=0;labelBackgroundColor=none;fontFamily=Verdana;fontSize=12" vertex="1" parent="1">
          <mxGeometry x="875" y="4731" width="9" height="50" as="geometry" />
        </mxCell>
        <mxCell id="OuKS78Ats9uxQYEp-e0J-122" value="" style="verticalLabelPosition=bottom;dashed=0;shadow=0;html=1;align=center;verticalAlign=top;strokeWidth=1;shape=mxgraph.cabinets.cb_1p;rounded=0;comic=0;labelBackgroundColor=none;fontFamily=Verdana;fontSize=12" vertex="1" parent="1">
          <mxGeometry x="884" y="4731" width="9" height="50" as="geometry" />
        </mxCell>
        <mxCell id="OuKS78Ats9uxQYEp-e0J-123" value="" style="verticalLabelPosition=bottom;dashed=0;shadow=0;html=1;align=center;verticalAlign=top;strokeWidth=1;shape=mxgraph.cabinets.cb_1p;rounded=0;comic=0;labelBackgroundColor=none;fontFamily=Verdana;fontSize=12" vertex="1" parent="1">
          <mxGeometry x="893" y="4731" width="9" height="50" as="geometry" />
        </mxCell>
        <mxCell id="OuKS78Ats9uxQYEp-e0J-124" value="" style="verticalLabelPosition=bottom;dashed=0;shadow=0;html=1;align=center;verticalAlign=top;strokeWidth=1;shape=mxgraph.cabinets.cb_1p;rounded=0;comic=0;labelBackgroundColor=none;fontFamily=Verdana;fontSize=12" vertex="1" parent="1">
          <mxGeometry x="902" y="4731" width="9" height="50" as="geometry" />
        </mxCell>
        <mxCell id="OuKS78Ats9uxQYEp-e0J-125" value="" style="verticalLabelPosition=bottom;dashed=0;shadow=0;html=1;align=center;verticalAlign=top;strokeWidth=1;shape=mxgraph.cabinets.cb_1p;rounded=0;comic=0;labelBackgroundColor=none;fontFamily=Verdana;fontSize=12" vertex="1" parent="1">
          <mxGeometry x="911" y="4731" width="9" height="50" as="geometry" />
        </mxCell>
        <mxCell id="OuKS78Ats9uxQYEp-e0J-126" value="" style="verticalLabelPosition=bottom;dashed=0;shadow=0;html=1;align=center;verticalAlign=top;strokeWidth=1;shape=mxgraph.cabinets.cb_1p;rounded=0;comic=0;labelBackgroundColor=none;fontFamily=Verdana;fontSize=12" vertex="1" parent="1">
          <mxGeometry x="920" y="4731" width="9" height="50" as="geometry" />
        </mxCell>
        <mxCell id="OuKS78Ats9uxQYEp-e0J-127" value="" style="verticalLabelPosition=bottom;dashed=0;shadow=0;html=1;align=center;verticalAlign=top;strokeWidth=1;shape=mxgraph.cabinets.cb_1p;rounded=0;comic=0;labelBackgroundColor=none;fontFamily=Verdana;fontSize=12" vertex="1" parent="1">
          <mxGeometry x="929" y="4731" width="9" height="50" as="geometry" />
        </mxCell>
        <mxCell id="OuKS78Ats9uxQYEp-e0J-128" value="" style="verticalLabelPosition=bottom;dashed=0;shadow=0;html=1;align=center;verticalAlign=top;strokeWidth=1;shape=mxgraph.cabinets.cb_1p;rounded=0;comic=0;labelBackgroundColor=none;fontFamily=Verdana;fontSize=12" vertex="1" parent="1">
          <mxGeometry x="938" y="4731" width="9" height="50" as="geometry" />
        </mxCell>
        <mxCell id="OuKS78Ats9uxQYEp-e0J-129" value="" style="verticalLabelPosition=bottom;dashed=0;shadow=0;html=1;align=center;verticalAlign=top;strokeWidth=1;shape=mxgraph.cabinets.cb_1p;rounded=0;comic=0;labelBackgroundColor=none;fontFamily=Verdana;fontSize=12" vertex="1" parent="1">
          <mxGeometry x="947" y="4731" width="9" height="50" as="geometry" />
        </mxCell>
        <mxCell id="OuKS78Ats9uxQYEp-e0J-130" value="" style="verticalLabelPosition=bottom;dashed=0;shadow=0;html=1;align=center;verticalAlign=top;strokeWidth=1;shape=mxgraph.cabinets.cb_1p;rounded=0;comic=0;labelBackgroundColor=none;fontFamily=Verdana;fontSize=12" vertex="1" parent="1">
          <mxGeometry x="956" y="4731" width="9" height="50" as="geometry" />
        </mxCell>
        <mxCell id="OuKS78Ats9uxQYEp-e0J-131" value="" style="verticalLabelPosition=bottom;dashed=0;shadow=0;html=1;align=center;verticalAlign=top;strokeWidth=1;shape=mxgraph.cabinets.cb_1p;rounded=0;comic=0;labelBackgroundColor=none;fontFamily=Verdana;fontSize=12" vertex="1" parent="1">
          <mxGeometry x="965" y="4731" width="9" height="50" as="geometry" />
        </mxCell>
        <mxCell id="OuKS78Ats9uxQYEp-e0J-132" value="" style="verticalLabelPosition=bottom;dashed=0;shadow=0;html=1;align=center;verticalAlign=top;strokeWidth=1;shape=mxgraph.cabinets.cb_1p;rounded=0;comic=0;labelBackgroundColor=none;fontFamily=Verdana;fontSize=12" vertex="1" parent="1">
          <mxGeometry x="974" y="4731" width="9" height="50" as="geometry" />
        </mxCell>
        <mxCell id="OuKS78Ats9uxQYEp-e0J-133" value="" style="verticalLabelPosition=bottom;dashed=0;shadow=0;html=1;align=center;verticalAlign=top;strokeWidth=1;shape=mxgraph.cabinets.cb_1p;rounded=0;comic=0;labelBackgroundColor=none;fontFamily=Verdana;fontSize=12" vertex="1" parent="1">
          <mxGeometry x="983" y="4731" width="9" height="50" as="geometry" />
        </mxCell>
        <mxCell id="OuKS78Ats9uxQYEp-e0J-134" value="" style="verticalLabelPosition=bottom;dashed=0;shadow=0;html=1;align=center;verticalAlign=top;strokeWidth=1;shape=mxgraph.cabinets.cb_1p;rounded=0;comic=0;labelBackgroundColor=none;fontFamily=Verdana;fontSize=12" vertex="1" parent="1">
          <mxGeometry x="992" y="4731" width="9" height="50" as="geometry" />
        </mxCell>
        <mxCell id="OuKS78Ats9uxQYEp-e0J-135" value="" style="verticalLabelPosition=bottom;dashed=0;shadow=0;html=1;align=center;verticalAlign=top;strokeWidth=1;shape=mxgraph.cabinets.cb_1p;rounded=0;comic=0;labelBackgroundColor=none;fontFamily=Verdana;fontSize=12" vertex="1" parent="1">
          <mxGeometry x="1001" y="4731" width="9" height="50" as="geometry" />
        </mxCell>
        <mxCell id="OuKS78Ats9uxQYEp-e0J-136" value="" style="verticalLabelPosition=bottom;dashed=0;shadow=0;html=1;align=center;verticalAlign=top;strokeWidth=1;shape=mxgraph.cabinets.cb_1p;rounded=0;comic=0;labelBackgroundColor=none;fontFamily=Verdana;fontSize=12" vertex="1" parent="1">
          <mxGeometry x="1010" y="4731" width="9" height="50" as="geometry" />
        </mxCell>
        <mxCell id="OuKS78Ats9uxQYEp-e0J-137" value="" style="verticalLabelPosition=bottom;dashed=0;shadow=0;html=1;align=center;verticalAlign=top;strokeWidth=1;shape=mxgraph.cabinets.cb_1p;rounded=0;comic=0;labelBackgroundColor=none;fontFamily=Verdana;fontSize=12" vertex="1" parent="1">
          <mxGeometry x="1019" y="4731" width="9" height="50" as="geometry" />
        </mxCell>
        <mxCell id="OuKS78Ats9uxQYEp-e0J-138" value="60x40" style="shape=rect;dashed=0;shadow=0;html=1;whiteSpace=wrap;rounded=0;comic=0;labelBackgroundColor=none;strokeWidth=1;fontFamily=Verdana;fontSize=12;align=center;rotation=-90;" vertex="1" parent="1">
          <mxGeometry x="817" y="4919" width="225" height="30" as="geometry" />
        </mxCell>
        <mxCell id="OuKS78Ats9uxQYEp-e0J-139" value="40x40" style="shape=rect;dashed=0;shadow=0;html=1;whiteSpace=wrap;rounded=0;comic=0;labelBackgroundColor=none;strokeWidth=1;fontFamily=Verdana;fontSize=12;align=center;" vertex="1" parent="1">
          <mxGeometry x="753" y="4922" width="161" height="20" as="geometry" />
        </mxCell>
        <mxCell id="OuKS78Ats9uxQYEp-e0J-140" value="" style="verticalLabelPosition=bottom;dashed=0;shadow=0;html=1;align=center;verticalAlign=top;strokeWidth=1;shape=mxgraph.cabinets.cb_1p;rounded=0;comic=0;labelBackgroundColor=none;fontFamily=Verdana;fontSize=12" vertex="1" parent="1">
          <mxGeometry x="754" y="4851" width="9" height="50" as="geometry" />
        </mxCell>
        <mxCell id="OuKS78Ats9uxQYEp-e0J-141" value="" style="verticalLabelPosition=bottom;dashed=0;shadow=0;html=1;align=center;verticalAlign=top;strokeWidth=1;shape=mxgraph.cabinets.cb_1p;rounded=0;comic=0;labelBackgroundColor=none;fontFamily=Verdana;fontSize=12" vertex="1" parent="1">
          <mxGeometry x="763" y="4851" width="9" height="50" as="geometry" />
        </mxCell>
        <mxCell id="OuKS78Ats9uxQYEp-e0J-142" value="" style="verticalLabelPosition=bottom;dashed=0;shadow=0;html=1;align=center;verticalAlign=top;strokeWidth=1;shape=mxgraph.cabinets.cb_1p;rounded=0;comic=0;labelBackgroundColor=none;fontFamily=Verdana;fontSize=12" vertex="1" parent="1">
          <mxGeometry x="772" y="4851" width="9" height="50" as="geometry" />
        </mxCell>
        <mxCell id="OuKS78Ats9uxQYEp-e0J-143" value="" style="verticalLabelPosition=bottom;dashed=0;shadow=0;html=1;align=center;verticalAlign=top;strokeWidth=1;shape=mxgraph.cabinets.cb_1p;rounded=0;comic=0;labelBackgroundColor=none;fontFamily=Verdana;fontSize=12" vertex="1" parent="1">
          <mxGeometry x="781" y="4851" width="9" height="50" as="geometry" />
        </mxCell>
        <mxCell id="OuKS78Ats9uxQYEp-e0J-144" value="" style="verticalLabelPosition=bottom;dashed=0;shadow=0;html=1;align=center;verticalAlign=top;strokeWidth=1;shape=mxgraph.cabinets.cb_1p;rounded=0;comic=0;labelBackgroundColor=none;fontFamily=Verdana;fontSize=12" vertex="1" parent="1">
          <mxGeometry x="790" y="4851" width="9" height="50" as="geometry" />
        </mxCell>
        <mxCell id="OuKS78Ats9uxQYEp-e0J-145" value="" style="verticalLabelPosition=bottom;dashed=0;shadow=0;html=1;align=center;verticalAlign=top;strokeWidth=1;shape=mxgraph.cabinets.cb_1p;rounded=0;comic=0;labelBackgroundColor=none;fontFamily=Verdana;fontSize=12" vertex="1" parent="1">
          <mxGeometry x="799" y="4851" width="9" height="50" as="geometry" />
        </mxCell>
        <mxCell id="OuKS78Ats9uxQYEp-e0J-146" value="" style="verticalLabelPosition=bottom;dashed=0;shadow=0;html=1;align=center;verticalAlign=top;strokeWidth=1;shape=mxgraph.cabinets.cb_1p;rounded=0;comic=0;labelBackgroundColor=none;fontFamily=Verdana;fontSize=12" vertex="1" parent="1">
          <mxGeometry x="808" y="4851" width="9" height="50" as="geometry" />
        </mxCell>
        <mxCell id="OuKS78Ats9uxQYEp-e0J-147" value="" style="verticalLabelPosition=bottom;dashed=0;shadow=0;html=1;align=center;verticalAlign=top;strokeWidth=1;shape=mxgraph.cabinets.cb_1p;rounded=0;comic=0;labelBackgroundColor=none;fontFamily=Verdana;fontSize=12" vertex="1" parent="1">
          <mxGeometry x="817" y="4851" width="9" height="50" as="geometry" />
        </mxCell>
        <mxCell id="OuKS78Ats9uxQYEp-e0J-148" value="" style="verticalLabelPosition=bottom;dashed=0;shadow=0;html=1;align=center;verticalAlign=top;strokeWidth=1;shape=mxgraph.cabinets.cb_1p;rounded=0;comic=0;labelBackgroundColor=none;fontFamily=Verdana;fontSize=12" vertex="1" parent="1">
          <mxGeometry x="826" y="4851" width="9" height="50" as="geometry" />
        </mxCell>
        <mxCell id="OuKS78Ats9uxQYEp-e0J-149" value="" style="verticalLabelPosition=bottom;dashed=0;shadow=0;html=1;align=center;verticalAlign=top;strokeWidth=1;shape=mxgraph.cabinets.cb_1p;rounded=0;comic=0;labelBackgroundColor=none;fontFamily=Verdana;fontSize=12" vertex="1" parent="1">
          <mxGeometry x="835" y="4851" width="9" height="50" as="geometry" />
        </mxCell>
        <mxCell id="OuKS78Ats9uxQYEp-e0J-150" value="" style="verticalLabelPosition=bottom;dashed=0;shadow=0;html=1;align=center;verticalAlign=top;strokeWidth=1;shape=mxgraph.cabinets.cb_1p;rounded=0;comic=0;labelBackgroundColor=none;fontFamily=Verdana;fontSize=12" vertex="1" parent="1">
          <mxGeometry x="844" y="4851" width="9" height="50" as="geometry" />
        </mxCell>
        <mxCell id="OuKS78Ats9uxQYEp-e0J-151" value="" style="verticalLabelPosition=bottom;dashed=0;shadow=0;html=1;align=center;verticalAlign=top;strokeWidth=1;shape=mxgraph.cabinets.cb_1p;rounded=0;comic=0;labelBackgroundColor=none;fontFamily=Verdana;fontSize=12" vertex="1" parent="1">
          <mxGeometry x="853" y="4851" width="9" height="50" as="geometry" />
        </mxCell>
        <mxCell id="OuKS78Ats9uxQYEp-e0J-152" value="" style="verticalLabelPosition=bottom;dashed=0;shadow=0;html=1;align=center;verticalAlign=top;strokeWidth=1;shape=mxgraph.cabinets.cb_1p;rounded=0;comic=0;labelBackgroundColor=none;fontFamily=Verdana;fontSize=12" vertex="1" parent="1">
          <mxGeometry x="862" y="4851" width="9" height="50" as="geometry" />
        </mxCell>
        <mxCell id="OuKS78Ats9uxQYEp-e0J-153" value="" style="verticalLabelPosition=bottom;dashed=0;shadow=0;html=1;align=center;verticalAlign=top;strokeWidth=1;shape=mxgraph.cabinets.cb_1p;rounded=0;comic=0;labelBackgroundColor=none;fontFamily=Verdana;fontSize=12" vertex="1" parent="1">
          <mxGeometry x="871" y="4851" width="9" height="50" as="geometry" />
        </mxCell>
        <mxCell id="OuKS78Ats9uxQYEp-e0J-154" value="" style="verticalLabelPosition=bottom;dashed=0;shadow=0;html=1;align=center;verticalAlign=top;strokeWidth=1;shape=mxgraph.cabinets.cb_1p;rounded=0;comic=0;labelBackgroundColor=none;fontFamily=Verdana;fontSize=12" vertex="1" parent="1">
          <mxGeometry x="880" y="4851" width="9" height="50" as="geometry" />
        </mxCell>
        <mxCell id="OuKS78Ats9uxQYEp-e0J-155" value="" style="verticalLabelPosition=bottom;dashed=0;shadow=0;html=1;align=center;verticalAlign=top;strokeWidth=1;shape=mxgraph.cabinets.cb_1p;rounded=0;comic=0;labelBackgroundColor=none;fontFamily=Verdana;fontSize=12" vertex="1" parent="1">
          <mxGeometry x="889" y="4851" width="9" height="50" as="geometry" />
        </mxCell>
        <mxCell id="OuKS78Ats9uxQYEp-e0J-156" value="" style="verticalLabelPosition=bottom;dashed=0;shadow=0;html=1;align=center;verticalAlign=top;strokeWidth=1;shape=mxgraph.cabinets.cb_1p;rounded=0;comic=0;labelBackgroundColor=none;fontFamily=Verdana;fontSize=12" vertex="1" parent="1">
          <mxGeometry x="898" y="4851" width="9" height="50" as="geometry" />
        </mxCell>
        <mxCell id="OuKS78Ats9uxQYEp-e0J-157" value="" style="verticalLabelPosition=bottom;dashed=0;shadow=0;html=1;align=center;verticalAlign=top;strokeWidth=1;shape=mxgraph.cabinets.cb_1p;rounded=0;comic=0;labelBackgroundColor=none;fontFamily=Verdana;fontSize=12" vertex="1" parent="1">
          <mxGeometry x="755" y="4956" width="9" height="50" as="geometry" />
        </mxCell>
        <mxCell id="OuKS78Ats9uxQYEp-e0J-158" value="" style="verticalLabelPosition=bottom;dashed=0;shadow=0;html=1;align=center;verticalAlign=top;strokeWidth=1;shape=mxgraph.cabinets.cb_1p;rounded=0;comic=0;labelBackgroundColor=none;fontFamily=Verdana;fontSize=12" vertex="1" parent="1">
          <mxGeometry x="764" y="4956" width="9" height="50" as="geometry" />
        </mxCell>
        <mxCell id="OuKS78Ats9uxQYEp-e0J-159" value="" style="verticalLabelPosition=bottom;dashed=0;shadow=0;html=1;align=center;verticalAlign=top;strokeWidth=1;shape=mxgraph.cabinets.cb_1p;rounded=0;comic=0;labelBackgroundColor=none;fontFamily=Verdana;fontSize=12" vertex="1" parent="1">
          <mxGeometry x="773" y="4956" width="9" height="50" as="geometry" />
        </mxCell>
        <mxCell id="OuKS78Ats9uxQYEp-e0J-160" value="" style="verticalLabelPosition=bottom;dashed=0;shadow=0;html=1;align=center;verticalAlign=top;strokeWidth=1;shape=mxgraph.cabinets.cb_1p;rounded=0;comic=0;labelBackgroundColor=none;fontFamily=Verdana;fontSize=12" vertex="1" parent="1">
          <mxGeometry x="782" y="4956" width="9" height="50" as="geometry" />
        </mxCell>
        <mxCell id="OuKS78Ats9uxQYEp-e0J-161" value="" style="verticalLabelPosition=bottom;dashed=0;shadow=0;html=1;align=center;verticalAlign=top;strokeWidth=1;shape=mxgraph.cabinets.cb_1p;rounded=0;comic=0;labelBackgroundColor=none;fontFamily=Verdana;fontSize=12" vertex="1" parent="1">
          <mxGeometry x="791" y="4956" width="9" height="50" as="geometry" />
        </mxCell>
        <mxCell id="OuKS78Ats9uxQYEp-e0J-162" value="" style="verticalLabelPosition=bottom;dashed=0;shadow=0;html=1;align=center;verticalAlign=top;strokeWidth=1;shape=mxgraph.cabinets.cb_1p;rounded=0;comic=0;labelBackgroundColor=none;fontFamily=Verdana;fontSize=12" vertex="1" parent="1">
          <mxGeometry x="800" y="4956" width="9" height="50" as="geometry" />
        </mxCell>
        <mxCell id="OuKS78Ats9uxQYEp-e0J-163" value="" style="verticalLabelPosition=bottom;dashed=0;shadow=0;html=1;align=center;verticalAlign=top;strokeWidth=1;shape=mxgraph.cabinets.cb_1p;rounded=0;comic=0;labelBackgroundColor=none;fontFamily=Verdana;fontSize=12" vertex="1" parent="1">
          <mxGeometry x="809" y="4956" width="9" height="50" as="geometry" />
        </mxCell>
        <mxCell id="OuKS78Ats9uxQYEp-e0J-164" value="" style="verticalLabelPosition=bottom;dashed=0;shadow=0;html=1;align=center;verticalAlign=top;strokeWidth=1;shape=mxgraph.cabinets.cb_1p;rounded=0;comic=0;labelBackgroundColor=none;fontFamily=Verdana;fontSize=12" vertex="1" parent="1">
          <mxGeometry x="818" y="4956" width="9" height="50" as="geometry" />
        </mxCell>
        <mxCell id="OuKS78Ats9uxQYEp-e0J-165" value="" style="verticalLabelPosition=bottom;dashed=0;shadow=0;html=1;align=center;verticalAlign=top;strokeWidth=1;shape=mxgraph.cabinets.cb_1p;rounded=0;comic=0;labelBackgroundColor=none;fontFamily=Verdana;fontSize=12" vertex="1" parent="1">
          <mxGeometry x="827" y="4956" width="9" height="50" as="geometry" />
        </mxCell>
        <mxCell id="OuKS78Ats9uxQYEp-e0J-166" value="" style="verticalLabelPosition=bottom;dashed=0;shadow=0;html=1;align=center;verticalAlign=top;strokeWidth=1;shape=mxgraph.cabinets.cb_1p;rounded=0;comic=0;labelBackgroundColor=none;fontFamily=Verdana;fontSize=12" vertex="1" parent="1">
          <mxGeometry x="836" y="4956" width="9" height="50" as="geometry" />
        </mxCell>
        <mxCell id="OuKS78Ats9uxQYEp-e0J-167" value="" style="verticalLabelPosition=bottom;dashed=0;shadow=0;html=1;align=center;verticalAlign=top;strokeWidth=1;shape=mxgraph.cabinets.cb_1p;rounded=0;comic=0;labelBackgroundColor=none;fontFamily=Verdana;fontSize=12" vertex="1" parent="1">
          <mxGeometry x="845" y="4956" width="9" height="50" as="geometry" />
        </mxCell>
        <mxCell id="OuKS78Ats9uxQYEp-e0J-168" value="" style="verticalLabelPosition=bottom;dashed=0;shadow=0;html=1;align=center;verticalAlign=top;strokeWidth=1;shape=mxgraph.cabinets.cb_1p;rounded=0;comic=0;labelBackgroundColor=none;fontFamily=Verdana;fontSize=12" vertex="1" parent="1">
          <mxGeometry x="854" y="4956" width="9" height="50" as="geometry" />
        </mxCell>
        <mxCell id="OuKS78Ats9uxQYEp-e0J-169" value="" style="verticalLabelPosition=bottom;dashed=0;shadow=0;html=1;align=center;verticalAlign=top;strokeWidth=1;shape=mxgraph.cabinets.cb_1p;rounded=0;comic=0;labelBackgroundColor=none;fontFamily=Verdana;fontSize=12" vertex="1" parent="1">
          <mxGeometry x="863" y="4956" width="9" height="50" as="geometry" />
        </mxCell>
        <mxCell id="OuKS78Ats9uxQYEp-e0J-170" value="" style="verticalLabelPosition=bottom;dashed=0;shadow=0;html=1;align=center;verticalAlign=top;strokeWidth=1;shape=mxgraph.cabinets.cb_1p;rounded=0;comic=0;labelBackgroundColor=none;fontFamily=Verdana;fontSize=12" vertex="1" parent="1">
          <mxGeometry x="872" y="4956" width="9" height="50" as="geometry" />
        </mxCell>
        <mxCell id="OuKS78Ats9uxQYEp-e0J-171" value="" style="verticalLabelPosition=bottom;dashed=0;shadow=0;html=1;align=center;verticalAlign=top;strokeWidth=1;shape=mxgraph.cabinets.cb_1p;rounded=0;comic=0;labelBackgroundColor=none;fontFamily=Verdana;fontSize=12" vertex="1" parent="1">
          <mxGeometry x="881" y="4956" width="9" height="50" as="geometry" />
        </mxCell>
        <mxCell id="OuKS78Ats9uxQYEp-e0J-172" value="" style="verticalLabelPosition=bottom;dashed=0;shadow=0;html=1;align=center;verticalAlign=top;strokeWidth=1;shape=mxgraph.cabinets.cb_1p;rounded=0;comic=0;labelBackgroundColor=none;fontFamily=Verdana;fontSize=12" vertex="1" parent="1">
          <mxGeometry x="890" y="4956" width="9" height="50" as="geometry" />
        </mxCell>
        <mxCell id="OuKS78Ats9uxQYEp-e0J-173" value="" style="verticalLabelPosition=bottom;dashed=0;shadow=0;html=1;align=center;verticalAlign=top;strokeWidth=1;shape=mxgraph.cabinets.cb_1p;rounded=0;comic=0;labelBackgroundColor=none;fontFamily=Verdana;fontSize=12" vertex="1" parent="1">
          <mxGeometry x="899" y="4956" width="9" height="50" as="geometry" />
        </mxCell>
        <mxCell id="OuKS78Ats9uxQYEp-e0J-174" value="Machine Cabinet" style="whiteSpace=wrap;strokeWidth=2;" vertex="1" parent="1">
          <mxGeometry x="1180" y="4618" width="133" height="37" as="geometry" />
        </mxCell>
        <mxCell id="OuKS78Ats9uxQYEp-e0J-175" value="Front Panel" style="rounded=1;absoluteArcSize=1;arcSize=14;whiteSpace=wrap;strokeWidth=2;" vertex="1" parent="1">
          <mxGeometry x="1439" y="4444" width="94" height="37" as="geometry" />
        </mxCell>
        <mxCell id="OuKS78Ats9uxQYEp-e0J-176" value="Side Panel" style="rounded=1;absoluteArcSize=1;arcSize=14;whiteSpace=wrap;strokeWidth=2;" vertex="1" parent="1">
          <mxGeometry x="1442" y="4618" width="88" height="37" as="geometry" />
        </mxCell>
        <mxCell id="OuKS78Ats9uxQYEp-e0J-177" value="Back Panel" style="rounded=1;absoluteArcSize=1;arcSize=14;whiteSpace=wrap;strokeWidth=2;" vertex="1" parent="1">
          <mxGeometry x="1441" y="4792" width="90" height="37" as="geometry" />
        </mxCell>
        <mxCell id="OuKS78Ats9uxQYEp-e0J-178" value="Component 1" style="rounded=1;absoluteArcSize=1;arcSize=14;whiteSpace=wrap;strokeWidth=2;" vertex="1" parent="1">
          <mxGeometry x="1677" y="4400" width="109" height="37" as="geometry" />
        </mxCell>
        <mxCell id="OuKS78Ats9uxQYEp-e0J-179" value="Component 2" style="rounded=1;absoluteArcSize=1;arcSize=14;whiteSpace=wrap;strokeWidth=2;" vertex="1" parent="1">
          <mxGeometry x="1677" y="4487" width="109" height="37" as="geometry" />
        </mxCell>
        <mxCell id="OuKS78Ats9uxQYEp-e0J-180" value="Component 3" style="rounded=1;absoluteArcSize=1;arcSize=14;whiteSpace=wrap;strokeWidth=2;" vertex="1" parent="1">
          <mxGeometry x="1677" y="4574" width="109" height="37" as="geometry" />
        </mxCell>
        <mxCell id="OuKS78Ats9uxQYEp-e0J-181" value="Component 4" style="rounded=1;absoluteArcSize=1;arcSize=14;whiteSpace=wrap;strokeWidth=2;" vertex="1" parent="1">
          <mxGeometry x="1677" y="4661" width="109" height="37" as="geometry" />
        </mxCell>
        <mxCell id="OuKS78Ats9uxQYEp-e0J-182" value="Component 5" style="rounded=1;absoluteArcSize=1;arcSize=14;whiteSpace=wrap;strokeWidth=2;" vertex="1" parent="1">
          <mxGeometry x="1677" y="4748" width="109" height="37" as="geometry" />
        </mxCell>
        <mxCell id="OuKS78Ats9uxQYEp-e0J-183" value="Component 6" style="rounded=1;absoluteArcSize=1;arcSize=14;whiteSpace=wrap;strokeWidth=2;" vertex="1" parent="1">
          <mxGeometry x="1677" y="4835" width="109" height="37" as="geometry" />
        </mxCell>
        <mxCell id="OuKS78Ats9uxQYEp-e0J-184" value="Front Door" style="curved=1;startArrow=none;endArrow=block;exitX=0.6;exitY=-0.01;entryX=0;entryY=0.49;rounded=0;" edge="1" parent="1" source="OuKS78Ats9uxQYEp-e0J-174" target="OuKS78Ats9uxQYEp-e0J-175">
          <mxGeometry relative="1" as="geometry">
            <Array as="points">
              <mxPoint x="1376" y="4462" />
            </Array>
          </mxGeometry>
        </mxCell>
        <mxCell id="OuKS78Ats9uxQYEp-e0J-185" value="Side Panel" style="curved=1;startArrow=none;endArrow=block;exitX=1;exitY=0.49;entryX=0;entryY=0.49;rounded=0;" edge="1" parent="1" source="OuKS78Ats9uxQYEp-e0J-174" target="OuKS78Ats9uxQYEp-e0J-176">
          <mxGeometry relative="1" as="geometry">
            <Array as="points" />
          </mxGeometry>
        </mxCell>
        <mxCell id="OuKS78Ats9uxQYEp-e0J-186" value="Back Panel" style="curved=1;startArrow=none;endArrow=block;exitX=0.6;exitY=0.99;entryX=0;entryY=0.49;rounded=0;" edge="1" parent="1" source="OuKS78Ats9uxQYEp-e0J-174" target="OuKS78Ats9uxQYEp-e0J-177">
          <mxGeometry relative="1" as="geometry">
            <Array as="points">
              <mxPoint x="1376" y="4810" />
            </Array>
          </mxGeometry>
        </mxCell>
        <mxCell id="OuKS78Ats9uxQYEp-e0J-187" value="Component 1" style="curved=1;startArrow=none;endArrow=block;exitX=1;exitY=0.02;entryX=0;entryY=0.5;rounded=0;" edge="1" parent="1" source="OuKS78Ats9uxQYEp-e0J-175" target="OuKS78Ats9uxQYEp-e0J-178">
          <mxGeometry relative="1" as="geometry">
            <Array as="points">
              <mxPoint x="1605" y="4419" />
            </Array>
          </mxGeometry>
        </mxCell>
        <mxCell id="OuKS78Ats9uxQYEp-e0J-188" value="Component 2" style="curved=1;startArrow=none;endArrow=block;exitX=1;exitY=0.95;entryX=0;entryY=0.5;rounded=0;" edge="1" parent="1" source="OuKS78Ats9uxQYEp-e0J-175" target="OuKS78Ats9uxQYEp-e0J-179">
          <mxGeometry relative="1" as="geometry">
            <Array as="points">
              <mxPoint x="1605" y="4506" />
            </Array>
          </mxGeometry>
        </mxCell>
        <mxCell id="OuKS78Ats9uxQYEp-e0J-189" value="Component 3" style="curved=1;startArrow=none;endArrow=block;exitX=1;exitY=0.05;entryX=0;entryY=0.5;rounded=0;" edge="1" parent="1" source="OuKS78Ats9uxQYEp-e0J-176" target="OuKS78Ats9uxQYEp-e0J-180">
          <mxGeometry relative="1" as="geometry">
            <Array as="points">
              <mxPoint x="1605" y="4593" />
            </Array>
          </mxGeometry>
        </mxCell>
        <mxCell id="OuKS78Ats9uxQYEp-e0J-190" value="Component 4" style="curved=1;startArrow=none;endArrow=block;exitX=1;exitY=0.92;entryX=0;entryY=0.5;rounded=0;" edge="1" parent="1" source="OuKS78Ats9uxQYEp-e0J-176" target="OuKS78Ats9uxQYEp-e0J-181">
          <mxGeometry relative="1" as="geometry">
            <Array as="points">
              <mxPoint x="1605" y="4680" />
            </Array>
          </mxGeometry>
        </mxCell>
        <mxCell id="OuKS78Ats9uxQYEp-e0J-191" value="Component 5" style="curved=1;startArrow=none;endArrow=block;exitX=1;exitY=0.04;entryX=0;entryY=0.5;rounded=0;" edge="1" parent="1" source="OuKS78Ats9uxQYEp-e0J-177" target="OuKS78Ats9uxQYEp-e0J-182">
          <mxGeometry relative="1" as="geometry">
            <Array as="points">
              <mxPoint x="1605" y="4767" />
            </Array>
          </mxGeometry>
        </mxCell>
        <mxCell id="OuKS78Ats9uxQYEp-e0J-192" value="Component 6" style="curved=1;startArrow=none;endArrow=block;exitX=1;exitY=0.93;entryX=0;entryY=0.5;rounded=0;" edge="1" parent="1" source="OuKS78Ats9uxQYEp-e0J-177" target="OuKS78Ats9uxQYEp-e0J-183">
          <mxGeometry relative="1" as="geometry">
            <Array as="points">
              <mxPoint x="1605" y="4854" />
            </Array>
          </mxGeometry>
        </mxCell>
      </root>
    </mxGraphModel>
  </diagram>
</mxfile>
